<?xml version="1.0" encoding="UTF-8" standalone="no"?>
<!-- Created with Inkscape (http://www.inkscape.org/) -->

<svg
   width="61.37727mm"
   height="51.786602mm"
   viewBox="0 0 61.37727 51.786602"
   version="1.1"
   id="svg1"
   sodipodi:docname="bookie-final.svg"
   inkscape:version="1.3 (0e150ed6c4, 2023-07-21)"
   xmlns:inkscape="http://www.inkscape.org/namespaces/inkscape"
   xmlns:sodipodi="http://sodipodi.sourceforge.net/DTD/sodipodi-0.dtd"
   xmlns="http://www.w3.org/2000/svg"
   xmlns:svg="http://www.w3.org/2000/svg">
  <sodipodi:namedview
     id="namedview1"
     pagecolor="#505050"
     bordercolor="#eeeeee"
     borderopacity="1"
     inkscape:showpageshadow="0"
     inkscape:pageopacity="0"
     inkscape:pagecheckerboard="0"
     inkscape:deskcolor="#505050"
     inkscape:document-units="mm"
     inkscape:zoom="4"
     inkscape:cx="87.000001"
     inkscape:cy="60.875001"
     inkscape:window-width="1920"
     inkscape:window-height="1017"
     inkscape:window-x="-8"
     inkscape:window-y="230"
     inkscape:window-maximized="1"
     inkscape:current-layer="layer1" />
  <defs
     id="defs1" />
  <g
     inkscape:groupmode="layer"
     id="layer1"
     inkscape:label="Layer 4"
     transform="translate(-19.268202,-166.01561)">
    <rect
       style="fill:#c2211e;fill-opacity:1;stroke-width:0.272535"
       id="rect1"
       width="36.148529"
       height="39.792938"
       x="19.268202"
       y="166.01561"
       ry="6.2859707"
       rx="3.3253827"
       inkscape:export-filename="bookie-atempt10.png"
       inkscape:export-xdpi="96"
       inkscape:export-ydpi="96" />
    <rect
       style="mix-blend-mode:normal;fill:#f8dbba;fill-opacity:1;stroke:none;stroke-width:0.265;stroke-dasharray:none"
       id="rect1-0"
       width="36.148529"
       height="37.622414"
       x="21.459248"
       y="167.10088"
       ry="5.9430995"
       rx="3.3253827" />
    <rect
       style="mix-blend-mode:normal;fill:#fdf5ec;fill-opacity:1;stroke:none;stroke-width:0.265;stroke-dasharray:none"
       id="rect1-0-4-2"
       width="36.148529"
       height="37.622414"
       x="23.164116"
       y="167.10088"
       ry="5.9430995"
       rx="3.3253827" />
    <rect
       style="mix-blend-mode:normal;fill:#f8dbba;fill-opacity:1;stroke:none;stroke-width:0.265;stroke-dasharray:none"
       id="rect1-0-4"
       width="36.148529"
       height="37.622414"
       x="24.390572"
       y="167.10086"
       ry="5.9430995"
       rx="3.3253827" />
    <path
       style="fill:#fdf5ec;fill-opacity:1;stroke:none;stroke-width:0.389388;stroke-linecap:round;stroke-linejoin:bevel;stroke-dasharray:none;stroke-dashoffset:0;stroke-opacity:1;paint-order:normal"
       d="m 34.95576,200.18601 c 0,0 -27.0426437,22.31498 3.858091,16.7143 30.900735,-5.60067 41.674218,-1.58167 41.674218,-1.58167 0,0 -3.192678,-1.12686 -4.121574,-2.63145 -0.882903,-1.43008 4.278976,-0.87363 4.278976,-0.87363 0,0 -4.648638,-2.54717 -19.071864,-2.29705 -7.878912,0.13664 -27.12903,4.51244 -29.198831,3.59102 -5.756902,-2.56282 9.380021,-9.96101 9.380021,-9.96101 z"
       id="path45"
       sodipodi:nodetypes="cscscsscc" />
    <path
       id="rect1-0-0"
       style="fill:#de2e2b;stroke-width:0.271915"
       d="m 30.38151,164.40271 h 29.497763 c 1.842262,0 3.325383,2.7908 3.325383,6.2574 v 27.09727 c 0,3.46659 -1.483121,6.25739 -3.325383,6.25739 H 30.38151 c -1.842262,0 -3.325383,-2.7908 -3.325383,-6.25739 v -27.09727 c 0,-3.4666 1.483121,-6.2574 3.325383,-6.2574 z" />
    <path
       id="path54"
       style="fill:#fdf5ec;fill-opacity:1;stroke:none;stroke-width:0.126458;stroke-linecap:round;stroke-linejoin:bevel;stroke-dasharray:none;stroke-dashoffset:0;stroke-opacity:1;paint-order:normal"
       d="m 37.342466,191.52129 a 3.3568473,3.3568473 0 0 0 -3.356901,3.3569 3.3568473,3.3568473 0 0 0 0.663525,1.98902 3.3568473,3.3568473 0 0 1 2.693376,-1.36787 3.3568473,3.3568473 0 0 1 2.698543,1.36115 3.3568473,3.3568473 0 0 0 0.658358,-1.9823 3.3568473,3.3568473 0 0 0 -3.356901,-3.3569 z" />
    <path
       id="path54-3"
       style="fill:#fdf5ec;fill-opacity:1;stroke:none;stroke-width:0.126458;stroke-linecap:round;stroke-linejoin:bevel;stroke-dasharray:none;stroke-dashoffset:0;stroke-opacity:1;paint-order:normal"
       d="m 53.628472,191.52129 a 3.3568473,3.3568473 0 0 0 -3.356901,3.3569 3.3568473,3.3568473 0 0 0 0.663525,1.98902 3.3568473,3.3568473 0 0 1 2.693376,-1.36787 3.3568473,3.3568473 0 0 1 2.698543,1.36115 3.3568473,3.3568473 0 0 0 0.658358,-1.9823 3.3568473,3.3568473 0 0 0 -3.356901,-3.3569 z" />
    <rect
       style="fill:#c2211e;fill-opacity:1;stroke-width:2.48391;stroke-linecap:round;stroke-linejoin:bevel"
       id="rect2"
       width="13.454715"
       height="2.3021922"
       x="31.675676"
       y="167.10088"
       rx="0.96362323"
       ry="1.1510961" />
    <rect
       style="fill:#c2211e;fill-opacity:1;stroke-width:2.38064;stroke-linecap:round;stroke-linejoin:bevel"
       id="rect2-3"
       width="12.359125"
       height="2.3021922"
       x="47.273182"
       y="167.10088"
       rx="1.2125638"
       ry="1.1510961" />
    <rect
       style="fill:#c2211e;fill-opacity:1;stroke-width:1.72553;stroke-linecap:round;stroke-linejoin:bevel"
       id="rect2-9"
       width="6.493"
       height="2.3021922"
       x="169.77724"
       y="-62.144005"
       rx="1.1385658"
       ry="1.1510961"
       transform="rotate(90)" />
    <rect
       style="fill:#c2211e;fill-opacity:1;stroke-width:2.98486;stroke-linecap:round;stroke-linejoin:bevel"
       id="rect2-9-2"
       width="19.428993"
       height="2.3021922"
       x="177.43822"
       y="-62.144005"
       rx="1.3914994"
       ry="1.1510961"
       transform="rotate(90)" />
    <rect
       style="fill:#c2211e;fill-opacity:1;stroke-width:1.98435;stroke-linecap:round;stroke-linejoin:bevel"
       id="rect2-9-7"
       width="8.5869694"
       height="2.3021922"
       x="170.46138"
       y="-31.146509"
       rx="1.1060979"
       ry="1.1510961"
       transform="rotate(90)" />
    <rect
       style="fill:#c2211e;fill-opacity:1;stroke-width:1.98435;stroke-linecap:round;stroke-linejoin:bevel"
       id="rect2-9-7-2"
       width="8.5869694"
       height="2.3021922"
       x="180.44441"
       y="-31.146509"
       rx="1.1294841"
       ry="1.1510961"
       transform="rotate(90)" />
    <path
       d="m 48.836759,199.48694 c -0.416933,-0.28785 -0.774389,-0.035 -0.948643,0.17958 -0.364135,0.44821 -0.671165,0.65327 -0.906241,0.83005 -0.641001,0.51364 -0.971438,0.63365 -1.993751,0.5876 -0.435191,-0.0196 -0.635556,-0.0947 -0.956937,-0.18267 -0.321235,-0.0886 -0.583713,-0.29456 -0.759241,-0.42775 -0.40508,-0.32099 -0.497504,-0.55507 -0.70345,-1.0348 -0.06672,-0.13324 -0.121801,-0.26904 -0.164862,-0.40628 -0.04318,-0.13732 -0.07684,-0.28649 -0.09252,-0.41435 -0.01566,-0.12791 -0.209295,-0.71569 -0.651956,-0.79429 -0.44268,-0.0786 -0.674169,0.23582 -0.73788,0.38207 -0.06373,0.14615 -0.01588,0.50827 0.01025,0.76324 0.03871,0.28922 0.128747,0.60194 0.13556,0.62359 0.05784,0.18386 0.122394,0.30625 0.213242,0.4878 0.108245,0.21613 0.270256,0.48897 0.508747,0.7817 0.135233,0.16614 0.26388,0.35031 0.444649,0.4764 0.180397,0.12577 0.409208,0.36637 0.953298,0.6207 0.544111,0.25429 0.971799,0.31091 1.389649,0.39163 0.417855,0.0807 0.868993,0.0807 1.197276,0.0257 0.402752,-0.0675 0.78455,-0.15475 1.022983,-0.24352 0.129619,-0.0483 0.342724,-0.134 0.58341,-0.26369 0.09222,-0.0498 0.181777,-0.10245 0.268474,-0.15782 0.199075,-0.12713 0.393812,-0.25498 0.517529,-0.36385 0.07434,-0.0655 0.278391,-0.23374 0.389136,-0.35103 0.110738,-0.11731 0.290917,-0.39855 0.391531,-0.56811 0.100627,-0.16957 0.306666,-0.65416 -0.110268,-0.94198 z"
       style="fill:#c2211e;stroke-width:3.85104;stroke-linecap:round;stroke-linejoin:bevel"
       id="path6"
       sodipodi:nodetypes="zzczzscszzzccccszzccccczzzz" />
  </g>
</svg>
